<svg version="1.1" xmlns="http://www.w3.org/2000/svg" xmlns:xlink="http://www.w3.org/1999/xlink" width="28" height="28" viewBox="0 0 28 28" data-code="62141" data-tags="user-circle"><g fill="#444" transform="scale(0.02734375 0.02734375)"><path d="M870.286 765.143c-14.857-106.857-58.286-201.714-155.429-214.857-50.286 54.857-122.857 89.714-202.857 89.714s-152.571-34.857-202.857-89.714c-97.143 13.143-140.571 108-155.429 214.857 79.429 112 210.286 185.714 358.286 185.714s278.857-73.714 358.286-185.714zM731.429 365.714c0-121.143-98.286-219.429-219.429-219.429s-219.429 98.286-219.429 219.429 98.286 219.429 219.429 219.429 219.429-98.286 219.429-219.429zM1024 512c0 281.714-228.571 512-512 512-282.857 0-512-229.714-512-512 0-282.857 229.143-512 512-512s512 229.143 512 512z"/></g></svg>